<?xml version="1.0" encoding="UTF-8" standalone="no"?>
<!DOCTYPE svg PUBLIC "-//W3C//DTD SVG 1.1//EN"
 "http://www.w3.org/Graphics/SVG/1.1/DTD/svg11.dtd">
<!-- Generated by graphviz version 2.38.0 (20140413.2041)
 -->
<!-- Title: dependencies Pages: 1 -->
<svg width="823pt" height="273pt"
 viewBox="0.00 0.00 823.37 272.60" xmlns="http://www.w3.org/2000/svg" xmlns:xlink="http://www.w3.org/1999/xlink">
<g id="graph0" class="graph" transform="scale(1 1) rotate(0) translate(4 268.6)">
<title>dependencies</title>
<!-- N0 -->
<g id="node1" class="node"><title>N0</title>
<ellipse fill="white" stroke="black" cx="267.183" cy="-192" rx="83.6854" ry="18"/>
<text text-anchor="middle" x="267.183" y="-188.3" font-family="Times,serif" font-size="14.00">load under 20%</text>
</g>
<!-- N0&#45;&gt;N0 -->
<g id="edge2" class="edge"><title>N0&#45;&gt;N0</title>
<path fill="none" stroke="black" d="M343.576,-199.525C358.458,-198.651 369.026,-196.143 369.026,-192 369.026,-188.861 362.957,-186.66 353.54,-185.398"/>
<polygon fill="black" stroke="black" points="353.856,-181.912 343.576,-184.475 353.21,-188.882 353.856,-181.912"/>
<text text-anchor="middle" x="393.526" y="-188.3" font-family="Times,serif" font-size="14.00">modify</text>
</g>
<!-- N1 -->
<g id="node2" class="node"><title>N1</title>
<ellipse fill="white" stroke="black" cx="121.183" cy="-105" rx="83.6854" ry="18"/>
<text text-anchor="middle" x="121.183" y="-101.3" font-family="Times,serif" font-size="14.00">load above 20%</text>
</g>
<!-- N0&#45;&gt;N1 -->
<g id="edge5" class="edge"><title>N0&#45;&gt;N1</title>
<path fill="none" stroke="black" d="M210.164,-178.756C193.437,-173.48 175.743,-166.122 161.183,-156 151.776,-149.46 143.46,-140.082 136.882,-131.211"/>
<polygon fill="black" stroke="black" points="139.723,-129.166 131.128,-122.971 133.983,-133.174 139.723,-129.166"/>
<text text-anchor="middle" x="182.683" y="-144.8" font-family="Times,serif" font-size="14.00">insert</text>
</g>
<!-- N2 -->
<g id="node3" class="node"><title>N2</title>
<ellipse fill="white" stroke="black" cx="556.183" cy="-105" rx="187.367" ry="18"/>
<text text-anchor="middle" x="556.183" y="-101.3" font-family="Times,serif" font-size="14.00">reduce displacement, load under 20%</text>
</g>
<!-- N0&#45;&gt;N2 -->
<g id="edge8" class="edge"><title>N0&#45;&gt;N2</title>
<path fill="none" stroke="black" stroke-dasharray="1,5" d="M314.582,-177.059C362.672,-162.915 437.466,-140.917 491.095,-125.144"/>
<polygon fill="black" stroke="black" points="492.245,-128.454 500.851,-122.274 490.269,-121.738 492.245,-128.454"/>
<text text-anchor="middle" x="479.683" y="-144.8" font-family="Times,serif" font-size="14.00">slow insertion</text>
</g>
<!-- N1&#45;&gt;N0 -->
<g id="edge6" class="edge"><title>N1&#45;&gt;N0</title>
<path fill="none" stroke="black" d="M162.362,-120.783C176.057,-126.369 191.133,-133.267 204.183,-141 217.011,-148.601 230.098,-158.561 240.997,-167.588"/>
<polygon fill="black" stroke="black" points="238.972,-170.46 248.864,-174.256 243.498,-165.12 238.972,-170.46"/>
<text text-anchor="middle" x="253.183" y="-144.8" font-family="Times,serif" font-size="14.00">remove</text>
</g>
<!-- N1&#45;&gt;N1 -->
<g id="edge3" class="edge"><title>N1&#45;&gt;N1</title>
<path fill="none" stroke="black" d="M197.576,-112.525C212.458,-111.651 223.026,-109.143 223.026,-105 223.026,-101.861 216.957,-99.66 207.54,-98.3979"/>
<polygon fill="black" stroke="black" points="207.856,-94.9122 197.576,-97.4754 207.21,-101.882 207.856,-94.9122"/>
<text text-anchor="middle" x="247.526" y="-101.3" font-family="Times,serif" font-size="14.00">modify</text>
</g>
<!-- N3 -->
<g id="node4" class="node"><title>N3</title>
<ellipse fill="white" stroke="black" cx="187.183" cy="-18" rx="187.367" ry="18"/>
<text text-anchor="middle" x="187.183" y="-14.3" font-family="Times,serif" font-size="14.00">reduce displacement, load above 20%</text>
</g>
<!-- N1&#45;&gt;N3 -->
<g id="edge7" class="edge"><title>N1&#45;&gt;N3</title>
<path fill="none" stroke="black" stroke-dasharray="5,2" d="M145.928,-87.7127C152.79,-82.3493 159.82,-75.9578 165.183,-69 170.534,-62.0579 174.889,-53.6114 178.269,-45.6516"/>
<polygon fill="black" stroke="black" points="181.537,-46.9058 181.911,-36.3176 175.016,-44.3616 181.537,-46.9058"/>
<text text-anchor="middle" x="224.683" y="-57.8" font-family="Times,serif" font-size="14.00">slow insertion</text>
</g>
<!-- N2&#45;&gt;N2 -->
<g id="edge12" class="edge"><title>N2&#45;&gt;N2</title>
<path fill="none" stroke="black" d="M730.568,-111.575C749.311,-110.309 761.367,-108.117 761.367,-105 761.367,-102.492 753.56,-100.583 740.745,-99.2726"/>
<polygon fill="black" stroke="black" points="740.824,-95.7671 730.568,-98.4247 740.243,-102.743 740.824,-95.7671"/>
<text text-anchor="middle" x="788.367" y="-101.3" font-family="Times,serif" font-size="14.00">remove</text>
</g>
<!-- N4 -->
<g id="node5" class="node"><title>N4</title>
<ellipse fill="white" stroke="black" cx="556.183" cy="-18" rx="69.5877" ry="18"/>
<text text-anchor="middle" x="556.183" y="-14.3" font-family="Times,serif" font-size="14.00">safe hashing</text>
</g>
<!-- N2&#45;&gt;N4 -->
<g id="edge13" class="edge"><title>N2&#45;&gt;N4</title>
<path fill="none" stroke="black" d="M556.183,-86.799C556.183,-75.1626 556.183,-59.5479 556.183,-46.2368"/>
<polygon fill="black" stroke="black" points="559.683,-46.1754 556.183,-36.1754 552.683,-46.1755 559.683,-46.1754"/>
<text text-anchor="middle" x="577.683" y="-57.8" font-family="Times,serif" font-size="14.00">insert</text>
</g>
<!-- N3&#45;&gt;N0 -->
<g id="edge10" class="edge"><title>N3&#45;&gt;N0</title>
<path fill="none" stroke="black" d="M256.167,-34.8477C265.106,-39.638 273.212,-45.8763 279.183,-54 306.066,-90.57 294.357,-111.767 284.183,-156 283.516,-158.901 282.575,-161.84 281.474,-164.718"/>
<polygon fill="black" stroke="black" points="278.155,-163.567 277.28,-174.126 284.549,-166.417 278.155,-163.567"/>
<text text-anchor="middle" x="317.683" y="-101.3" font-family="Times,serif" font-size="14.00">insert</text>
</g>
<!-- N3&#45;&gt;N1 -->
<g id="edge9" class="edge"><title>N3&#45;&gt;N1</title>
<path fill="none" stroke="black" d="M137.589,-35.5224C129.863,-40.2787 122.893,-46.3309 118.183,-54 114.116,-60.6232 113.255,-68.7161 113.856,-76.4452"/>
<polygon fill="black" stroke="black" points="110.437,-77.2371 115.419,-86.5872 117.355,-76.1707 110.437,-77.2371"/>
<text text-anchor="middle" x="139.683" y="-57.8" font-family="Times,serif" font-size="14.00">insert</text>
</g>
<!-- N3&#45;&gt;N3 -->
<g id="edge11" class="edge"><title>N3&#45;&gt;N3</title>
<path fill="none" stroke="black" d="M361.568,-24.5753C380.311,-23.309 392.367,-21.1172 392.367,-18 392.367,-15.4916 384.56,-13.5825 371.745,-12.2726"/>
<polygon fill="black" stroke="black" points="371.824,-8.76715 361.568,-11.4247 371.243,-15.743 371.824,-8.76715"/>
<text text-anchor="middle" x="419.367" y="-14.3" font-family="Times,serif" font-size="14.00">remove</text>
</g>
<!-- N4&#45;&gt;N4 -->
<g id="edge4" class="edge"><title>N4&#45;&gt;N4</title>
<path fill="none" stroke="black" d="M619.139,-25.6827C633.34,-24.9906 643.727,-22.4297 643.727,-18 643.727,-14.7123 638.005,-12.4541 629.249,-11.2252"/>
<polygon fill="black" stroke="black" points="629.412,-7.7258 619.139,-10.3173 628.785,-14.6977 629.412,-7.7258"/>
<text text-anchor="middle" x="668.227" y="-14.3" font-family="Times,serif" font-size="14.00">modify</text>
</g>
<!-- N5 -->
<!-- N5&#45;&gt;N0 -->
<g id="edge1" class="edge"><title>N5&#45;&gt;N0</title>
<path fill="none" stroke="black" d="M267.183,-260.827C267.183,-256.337 267.183,-237.111 267.183,-220.269"/>
<polygon fill="black" stroke="black" points="270.683,-220.245 267.183,-210.245 263.683,-220.245 270.683,-220.245"/>
<text text-anchor="middle" x="318.683" y="-231.8" font-family="Times,serif" font-size="14.00">new HashMap</text>
</g>
</g>
</svg>
